<svg width="44" height="43" viewBox="0 0 44 43" fill="none" xmlns="http://www.w3.org/2000/svg">
<path d="M32.8916 0.0731603C33.0542 -0.0223283 33.2556 -0.0231063 33.4189 0.0711232L42.0368 5.04327C42.3844 5.24385 42.3864 5.74462 42.0403 5.94788L32.4325 11.5906L22.2119 17.3767C22.0517 17.4674 21.8556 17.4674 21.6954 17.3766L11.4722 11.586L1.87039 5.9441C1.52439 5.7408 1.52638 5.24011 1.87398 5.03955L10.4872 0.0701295C10.6505 -0.0241197 10.852 -0.0233201 11.0146 0.0722231L16.3224 3.19103L21.693 6.23304C21.8532 6.32377 22.0492 6.3238 22.2094 6.2331L27.5786 3.19348L32.8916 0.0731603Z" fill="white"/>
<path d="M20.9524 32.5315C20.9524 32.343 20.851 32.1691 20.687 32.0762L15.3264 29.0383L10.0076 25.9115C9.84888 25.8182 9.75085 25.6484 9.74939 25.4644L9.70034 19.2955L9.74926 13.1426C9.75076 12.9541 9.65073 12.7794 9.48737 12.6851L0.874196 7.71569C0.526589 7.51513 0.0916859 7.76376 0.0884969 8.16485L0 19.2955L0.0933638 31.0383C0.0948267 31.2223 0.192854 31.3921 0.351556 31.4854L10.4762 37.4375L20.1702 42.9311C20.5194 43.129 20.9524 42.8769 20.9524 42.4758L20.9524 32.5315Z" fill="white"/>
<path d="M23.0476 32.5315C23.0476 32.343 23.149 32.1691 23.313 32.0762L28.6736 29.0383L33.9924 25.9115C34.1511 25.8182 34.2491 25.6484 34.2506 25.4644L34.2997 19.2955L34.2507 13.1426C34.2492 12.9541 34.3493 12.7794 34.5126 12.6851L43.1258 7.71569C43.4734 7.51513 43.9083 7.76376 43.9115 8.16485L44 19.2955L43.9066 31.0383C43.9052 31.2223 43.8071 31.3921 43.6484 31.4854L33.5238 37.4375L23.8298 42.9311C23.4806 43.129 23.0476 42.8769 23.0476 42.4758L23.0476 32.5315Z" fill="white"/>
</svg>
